<?xml version="1.0" encoding="UTF-8"?>
<svg xmlns="http://www.w3.org/2000/svg" xmlns:xlink="http://www.w3.org/1999/xlink" width="350.666667" height="117.333333" viewBox="0 0 350.666667 117.333333" version="1.1">
<g id="surface1">
<path style="fill-rule:nonzero;fill:rgb(69.803923%,85.09804%,100%);fill-opacity:1;stroke-width:1;stroke-linecap:round;stroke-linejoin:round;stroke:rgb(0%,0%,0%);stroke-opacity:1;stroke-miterlimit:10;" d="M 124.016602 139.235352 C 128.99707 144.21582 128.99707 152.28418 124.016602 157.264648 C 119.036133 162.245117 110.964844 162.245117 105.984375 157.264648 C 101.003906 152.28418 101.003906 144.21582 105.984375 139.235352 C 110.964844 134.254883 119.036133 134.254883 124.016602 139.235352 " transform="matrix(1.333333,0,0,1.333333,-32,-98.666667)"/>
<path style=" stroke:none;fill-rule:nonzero;fill:rgb(0%,0%,0%);fill-opacity:1;" d="M 119.585938 96.75 C 119.417969 95.917969 119.273438 95.707031 118.980469 95.707031 C 118.691406 95.707031 118.292969 95.792969 117.566406 96.0625 L 117.441406 96.105469 L 117.480469 96.292969 L 117.691406 96.230469 C 117.917969 96.167969 118.066406 96.144531 118.148438 96.144531 C 118.460938 96.144531 118.542969 96.25 118.710938 96.957031 L 119.042969 98.457031 L 118.066406 99.855469 C 117.816406 100.207031 117.585938 100.4375 117.441406 100.4375 C 117.378906 100.4375 117.253906 100.394531 117.128906 100.332031 C 116.980469 100.25 116.855469 100.1875 116.753906 100.1875 C 116.523438 100.1875 116.335938 100.394531 116.335938 100.625 C 116.335938 100.9375 116.566406 101.125 116.941406 101.125 C 117.316406 101.125 117.566406 101.019531 118.085938 100.3125 L 119.148438 98.894531 L 119.480469 100.3125 C 119.628906 100.917969 119.816406 101.125 120.191406 101.125 C 120.648438 101.125 120.960938 100.855469 121.667969 99.769531 L 121.480469 99.644531 C 121.378906 99.769531 121.335938 99.855469 121.230469 100 C 120.960938 100.355469 120.816406 100.480469 120.667969 100.480469 C 120.503906 100.480469 120.398438 100.3125 120.316406 99.980469 L 119.917969 98.375 C 119.855469 98.082031 119.816406 97.917969 119.816406 97.832031 C 120.355469 96.917969 120.792969 96.375 121.003906 96.375 C 121.292969 96.375 121.398438 96.582031 121.628906 96.582031 C 121.855469 96.582031 122.023438 96.394531 122.023438 96.144531 C 122.023438 95.894531 121.835938 95.707031 121.542969 95.707031 C 121.023438 95.707031 120.566406 96.144531 119.730469 97.417969 Z M 119.585938 96.75 "/>
<path style=" stroke:none;fill-rule:nonzero;fill:rgb(0%,0%,0%);fill-opacity:1;" d="M 125.144531 105 L 125.144531 104.875 C 124.539062 104.875 124.394531 104.730469 124.394531 104.394531 L 124.394531 99.625 L 124.308594 99.582031 L 122.894531 100.3125 L 122.894531 100.4375 L 123.101562 100.355469 C 123.246094 100.292969 123.371094 100.25 123.457031 100.25 C 123.621094 100.25 123.707031 100.375 123.707031 100.644531 L 123.707031 104.25 C 123.707031 104.6875 123.539062 104.855469 122.933594 104.875 L 122.933594 105 Z M 125.144531 105 "/>
<path style="fill-rule:nonzero;fill:rgb(69.803923%,85.09804%,100%);fill-opacity:1;stroke-width:1;stroke-linecap:round;stroke-linejoin:round;stroke:rgb(0%,0%,0%);stroke-opacity:1;stroke-miterlimit:10;" d="M 176.891602 139.235352 C 181.87207 144.21582 181.87207 152.28418 176.891602 157.264648 C 171.911133 162.245117 163.839844 162.245117 158.859375 157.264648 C 153.878906 152.28418 153.878906 144.21582 158.859375 139.235352 C 163.839844 134.254883 171.911133 134.254883 176.891602 139.235352 " transform="matrix(1.333333,0,0,1.333333,-32,-98.666667)"/>
<path style=" stroke:none;fill-rule:nonzero;fill:rgb(0%,0%,0%);fill-opacity:1;" d="M 190.085938 96.75 C 189.917969 95.917969 189.773438 95.707031 189.480469 95.707031 C 189.191406 95.707031 188.792969 95.792969 188.066406 96.0625 L 187.941406 96.105469 L 187.980469 96.292969 L 188.191406 96.230469 C 188.417969 96.167969 188.566406 96.144531 188.648438 96.144531 C 188.960938 96.144531 189.042969 96.25 189.210938 96.957031 L 189.542969 98.457031 L 188.566406 99.855469 C 188.316406 100.207031 188.085938 100.4375 187.941406 100.4375 C 187.878906 100.4375 187.753906 100.394531 187.628906 100.332031 C 187.480469 100.25 187.355469 100.1875 187.253906 100.1875 C 187.023438 100.1875 186.835938 100.394531 186.835938 100.625 C 186.835938 100.9375 187.066406 101.125 187.441406 101.125 C 187.816406 101.125 188.066406 101.019531 188.585938 100.3125 L 189.648438 98.894531 L 189.980469 100.3125 C 190.128906 100.917969 190.316406 101.125 190.691406 101.125 C 191.148438 101.125 191.460938 100.855469 192.167969 99.769531 L 191.980469 99.644531 C 191.878906 99.769531 191.835938 99.855469 191.730469 100 C 191.460938 100.355469 191.316406 100.480469 191.167969 100.480469 C 191.003906 100.480469 190.898438 100.3125 190.816406 99.980469 L 190.417969 98.375 C 190.355469 98.082031 190.316406 97.917969 190.316406 97.832031 C 190.855469 96.917969 191.292969 96.375 191.503906 96.375 C 191.792969 96.375 191.898438 96.582031 192.128906 96.582031 C 192.355469 96.582031 192.523438 96.394531 192.523438 96.144531 C 192.523438 95.894531 192.335938 95.707031 192.042969 95.707031 C 191.523438 95.707031 191.066406 96.144531 190.230469 97.417969 Z M 190.085938 96.75 "/>
<path style=" stroke:none;fill-rule:nonzero;fill:rgb(0%,0%,0%);fill-opacity:1;" d="M 196.289062 103.894531 L 196.183594 103.855469 C 195.914062 104.3125 195.746094 104.394531 195.414062 104.394531 L 193.539062 104.394531 L 194.851562 102.980469 C 195.558594 102.230469 195.871094 101.625 195.871094 101 C 195.871094 100.207031 195.308594 99.582031 194.394531 99.582031 C 193.414062 99.582031 192.914062 100.25 192.746094 101.1875 L 192.914062 101.230469 C 193.226562 100.4375 193.496094 100.1875 194.082031 100.1875 C 194.769531 100.1875 195.183594 100.582031 195.183594 101.3125 C 195.183594 102 194.914062 102.605469 194.144531 103.394531 L 192.726562 104.894531 L 192.726562 105 L 195.851562 105 Z M 196.289062 103.894531 "/>
<path style=" stroke:none;fill-rule:nonzero;fill:rgb(0%,0%,0%);fill-opacity:1;" d="M 13.109375 101.332031 L 13.109375 92.75 L 14.234375 92.75 L 14.234375 101.332031 Z M 13.109375 101.332031 "/>
<path style=" stroke:none;fill-rule:nonzero;fill:rgb(0%,0%,0%);fill-opacity:1;" d="M 16.109375 101.332031 L 16.109375 95.105469 L 17.066406 95.105469 L 17.066406 96 C 17.507812 95.324219 18.171875 94.980469 19.046875 94.980469 C 19.421875 94.980469 19.757812 95.050781 20.066406 95.1875 C 20.382812 95.3125 20.617188 95.488281 20.773438 95.707031 C 20.925781 95.917969 21.035156 96.175781 21.109375 96.480469 C 21.148438 96.675781 21.171875 97.015625 21.171875 97.5 L 21.171875 101.332031 L 20.109375 101.332031 L 20.109375 97.542969 C 20.109375 97.113281 20.066406 96.792969 19.984375 96.582031 C 19.898438 96.375 19.753906 96.207031 19.546875 96.082031 C 19.335938 95.949219 19.09375 95.875 18.816406 95.875 C 18.367188 95.875 17.984375 96.019531 17.648438 96.3125 C 17.328125 96.59375 17.171875 97.136719 17.171875 97.9375 L 17.171875 101.332031 Z M 16.109375 101.332031 "/>
<path style=" stroke:none;fill-rule:nonzero;fill:rgb(0%,0%,0%);fill-opacity:1;" d="M 22.78125 103.707031 L 22.78125 95.105469 L 23.742188 95.105469 L 23.742188 95.917969 C 23.960938 95.597656 24.210938 95.363281 24.492188 95.207031 C 24.78125 95.058594 25.136719 94.980469 25.554688 94.980469 C 26.078125 94.980469 26.542969 95.121094 26.949219 95.394531 C 27.351562 95.660156 27.65625 96.042969 27.867188 96.542969 C 28.074219 97.042969 28.179688 97.582031 28.179688 98.167969 C 28.179688 98.808594 28.058594 99.386719 27.824219 99.894531 C 27.601562 100.410156 27.273438 100.808594 26.84375 101.082031 C 26.414062 101.34375 25.953125 101.480469 25.46875 101.480469 C 25.121094 101.480469 24.808594 101.402344 24.53125 101.25 C 24.25 101.097656 24.023438 100.910156 23.84375 100.6875 L 23.84375 103.707031 Z M 23.742188 98.25 C 23.742188 99.058594 23.898438 99.65625 24.21875 100.042969 C 24.554688 100.417969 24.949219 100.605469 25.40625 100.605469 C 25.867188 100.605469 26.261719 100.410156 26.59375 100.019531 C 26.9375 99.621094 27.117188 99 27.117188 98.167969 C 27.117188 97.375 26.949219 96.785156 26.617188 96.394531 C 26.292969 95.996094 25.90625 95.792969 25.449219 95.792969 C 25 95.792969 24.605469 96.011719 24.261719 96.4375 C 23.914062 96.855469 23.742188 97.457031 23.742188 98.25 Z M 23.742188 98.25 "/>
<path style=" stroke:none;fill-rule:nonzero;fill:rgb(0%,0%,0%);fill-opacity:1;" d="M 33.539062 101.332031 L 33.539062 100.417969 C 33.050781 101.125 32.394531 101.480469 31.5625 101.480469 C 31.195312 101.480469 30.859375 101.40625 30.539062 101.269531 C 30.21875 101.121094 29.976562 100.9375 29.8125 100.730469 C 29.65625 100.519531 29.550781 100.265625 29.5 99.957031 C 29.457031 99.75 29.4375 99.417969 29.4375 98.957031 L 29.4375 95.105469 L 30.476562 95.105469 L 30.476562 98.5625 C 30.476562 99.121094 30.503906 99.488281 30.5625 99.667969 C 30.613281 99.949219 30.75 100.167969 30.957031 100.332031 C 31.175781 100.488281 31.445312 100.5625 31.769531 100.5625 C 32.085938 100.5625 32.382812 100.488281 32.664062 100.332031 C 32.941406 100.167969 33.132812 99.949219 33.25 99.667969 C 33.359375 99.390625 33.414062 98.980469 33.414062 98.4375 L 33.414062 95.105469 L 34.476562 95.105469 L 34.476562 101.332031 Z M 33.539062 101.332031 "/>
<path style=" stroke:none;fill-rule:nonzero;fill:rgb(0%,0%,0%);fill-opacity:1;" d="M 38.445312 100.394531 L 38.589844 101.3125 C 38.28125 101.378906 38.015625 101.417969 37.796875 101.417969 C 37.40625 101.417969 37.109375 101.355469 36.902344 101.230469 C 36.695312 101.105469 36.539062 100.949219 36.445312 100.75 C 36.359375 100.558594 36.320312 100.144531 36.320312 99.519531 L 36.320312 95.9375 L 35.546875 95.9375 L 35.546875 95.105469 L 36.320312 95.105469 L 36.320312 93.5625 L 37.382812 92.9375 L 37.382812 95.105469 L 38.445312 95.105469 L 38.445312 95.9375 L 37.382812 95.9375 L 37.382812 99.5625 C 37.382812 99.871094 37.390625 100.0625 37.421875 100.144531 C 37.464844 100.230469 37.527344 100.300781 37.609375 100.355469 C 37.695312 100.410156 37.808594 100.4375 37.964844 100.4375 C 38.089844 100.4375 38.246094 100.425781 38.445312 100.394531 Z M 38.445312 100.394531 "/>
<path style=" stroke:none;fill-rule:nonzero;fill:rgb(0%,0%,0%);fill-opacity:1;" d="M 42.777344 101.332031 L 42.777344 92.75 L 43.820312 92.75 L 43.820312 101.332031 Z M 42.777344 101.332031 "/>
<path style=" stroke:none;fill-rule:nonzero;fill:rgb(0%,0%,0%);fill-opacity:1;" d="M 49.527344 100.5625 C 49.136719 100.894531 48.761719 101.136719 48.402344 101.269531 C 48.039062 101.40625 47.652344 101.480469 47.234375 101.480469 C 46.554688 101.480469 46.027344 101.3125 45.652344 100.980469 C 45.289062 100.644531 45.109375 100.21875 45.109375 99.6875 C 45.109375 99.386719 45.179688 99.105469 45.320312 98.855469 C 45.453125 98.605469 45.636719 98.40625 45.859375 98.25 C 46.078125 98.097656 46.328125 97.980469 46.609375 97.894531 C 46.820312 97.855469 47.132812 97.808594 47.546875 97.75 C 48.40625 97.65625 49.039062 97.53125 49.445312 97.375 C 49.445312 97.238281 49.445312 97.144531 49.445312 97.105469 C 49.445312 96.675781 49.34375 96.375 49.152344 96.207031 C 48.871094 95.957031 48.46875 95.832031 47.945312 95.832031 C 47.445312 95.832031 47.074219 95.925781 46.839844 96.105469 C 46.601562 96.269531 46.429688 96.578125 46.320312 97.019531 L 45.296875 96.894531 C 45.382812 96.453125 45.527344 96.097656 45.734375 95.832031 C 45.953125 95.558594 46.265625 95.347656 46.671875 95.207031 C 47.089844 95.058594 47.558594 94.980469 48.089844 94.980469 C 48.632812 94.980469 49.058594 95.042969 49.382812 95.167969 C 49.714844 95.292969 49.953125 95.453125 50.109375 95.644531 C 50.277344 95.828125 50.386719 96.0625 50.445312 96.355469 C 50.484375 96.535156 50.507812 96.855469 50.507812 97.3125 L 50.507812 98.730469 C 50.507812 99.703125 50.527344 100.324219 50.570312 100.582031 C 50.609375 100.847656 50.699219 101.097656 50.839844 101.332031 L 49.734375 101.332031 C 49.621094 101.113281 49.554688 100.855469 49.527344 100.5625 Z M 49.445312 98.207031 C 49.054688 98.363281 48.476562 98.496094 47.714844 98.605469 C 47.28125 98.675781 46.976562 98.75 46.796875 98.832031 C 46.617188 98.90625 46.476562 99.015625 46.382812 99.167969 C 46.28125 99.324219 46.234375 99.488281 46.234375 99.667969 C 46.234375 99.949219 46.339844 100.183594 46.546875 100.375 C 46.757812 100.558594 47.070312 100.644531 47.484375 100.644531 C 47.886719 100.644531 48.246094 100.558594 48.570312 100.375 C 48.886719 100.199219 49.121094 99.953125 49.277344 99.644531 C 49.386719 99.410156 49.445312 99.0625 49.445312 98.605469 Z M 49.445312 98.207031 "/>
<path style=" stroke:none;fill-rule:nonzero;fill:rgb(0%,0%,0%);fill-opacity:1;" d="M 52.097656 103.730469 L 51.972656 102.75 C 52.207031 102.800781 52.410156 102.832031 52.578125 102.832031 C 52.8125 102.832031 53 102.792969 53.140625 102.707031 C 53.273438 102.636719 53.394531 102.53125 53.492188 102.394531 C 53.546875 102.28125 53.648438 102.019531 53.804688 101.605469 C 53.832031 101.546875 53.867188 101.464844 53.910156 101.355469 L 51.535156 95.105469 L 52.679688 95.105469 L 53.972656 98.707031 C 54.140625 99.167969 54.289062 99.644531 54.429688 100.144531 C 54.539062 99.675781 54.679688 99.203125 54.847656 98.730469 L 56.179688 95.105469 L 57.242188 95.105469 L 54.867188 101.4375 C 54.617188 102.113281 54.421875 102.589844 54.285156 102.855469 C 54.085938 103.199219 53.875 103.449219 53.640625 103.605469 C 53.398438 103.769531 53.109375 103.855469 52.765625 103.855469 C 52.566406 103.855469 52.347656 103.8125 52.097656 103.730469 Z M 52.097656 103.730469 "/>
<path style=" stroke:none;fill-rule:nonzero;fill:rgb(0%,0%,0%);fill-opacity:1;" d="M 62.390625 99.332031 L 63.492188 99.457031 C 63.3125 100.097656 62.984375 100.597656 62.515625 100.957031 C 62.054688 101.308594 61.460938 101.480469 60.742188 101.480469 C 59.835938 101.480469 59.117188 101.203125 58.578125 100.644531 C 58.046875 100.078125 57.785156 99.285156 57.785156 98.269531 C 57.785156 97.230469 58.054688 96.425781 58.597656 95.855469 C 59.140625 95.269531 59.835938 94.980469 60.703125 94.980469 C 61.535156 94.980469 62.207031 95.265625 62.722656 95.832031 C 63.25 96.390625 63.515625 97.183594 63.515625 98.207031 C 63.515625 98.28125 63.515625 98.375 63.515625 98.5 L 58.867188 98.5 C 58.910156 99.183594 59.101562 99.703125 59.453125 100.0625 C 59.796875 100.425781 60.234375 100.605469 60.765625 100.605469 C 61.148438 100.605469 61.476562 100.511719 61.742188 100.3125 C 62.019531 100.105469 62.234375 99.78125 62.390625 99.332031 Z M 58.929688 97.625 L 62.410156 97.625 C 62.367188 97.097656 62.234375 96.703125 62.015625 96.4375 C 61.679688 96.035156 61.242188 95.832031 60.703125 95.832031 C 60.210938 95.832031 59.804688 96 59.472656 96.332031 C 59.148438 96.65625 58.972656 97.082031 58.929688 97.625 Z M 58.929688 97.625 "/>
<path style=" stroke:none;fill-rule:nonzero;fill:rgb(0%,0%,0%);fill-opacity:1;" d="M 64.792969 101.332031 L 64.792969 95.105469 L 65.75 95.105469 L 65.75 96.0625 C 65.984375 95.621094 66.210938 95.328125 66.417969 95.1875 C 66.625 95.050781 66.855469 94.980469 67.105469 94.980469 C 67.449219 94.980469 67.8125 95.09375 68.1875 95.3125 L 67.8125 96.292969 C 67.5625 96.140625 67.304688 96.0625 67.042969 96.0625 C 66.820312 96.0625 66.609375 96.136719 66.417969 96.269531 C 66.234375 96.410156 66.105469 96.605469 66.023438 96.855469 C 65.90625 97.230469 65.855469 97.640625 65.855469 98.082031 L 65.855469 101.332031 Z M 64.792969 101.332031 "/>
<path style=" stroke:none;fill-rule:nonzero;fill:rgb(0%,0%,0%);fill-opacity:1;" d="M 7.898438 16.8125 C 7.898438 15.394531 8.28125 14.285156 9.046875 13.480469 C 9.804688 12.660156 10.796875 12.25 12.003906 12.25 C 12.796875 12.25 13.507812 12.449219 14.148438 12.832031 C 14.785156 13.207031 15.273438 13.738281 15.609375 14.417969 C 15.941406 15.097656 16.109375 15.863281 16.109375 16.707031 C 16.109375 17.582031 15.929688 18.371094 15.585938 19.0625 C 15.238281 19.746094 14.738281 20.265625 14.085938 20.625 C 13.445312 20.972656 12.753906 21.144531 12.003906 21.144531 C 11.195312 21.144531 10.472656 20.953125 9.835938 20.5625 C 9.195312 20.175781 8.710938 19.640625 8.378906 18.957031 C 8.054688 18.28125 7.898438 17.5625 7.898438 16.8125 Z M 9.066406 16.832031 C 9.066406 17.875 9.34375 18.699219 9.898438 19.292969 C 10.453125 19.875 11.15625 20.167969 12.003906 20.167969 C 12.847656 20.167969 13.550781 19.871094 14.109375 19.269531 C 14.660156 18.675781 14.941406 17.824219 14.941406 16.707031 C 14.941406 16.015625 14.820312 15.410156 14.585938 14.894531 C 14.347656 14.371094 14.003906 13.957031 13.546875 13.667969 C 13.085938 13.375 12.578125 13.230469 12.023438 13.230469 C 11.21875 13.230469 10.523438 13.511719 9.941406 14.0625 C 9.359375 14.621094 9.066406 15.542969 9.066406 16.832031 Z M 9.066406 16.832031 "/>
<path style=" stroke:none;fill-rule:nonzero;fill:rgb(0%,0%,0%);fill-opacity:1;" d="M 21.523438 21 L 21.523438 20.082031 C 21.035156 20.792969 20.378906 21.144531 19.546875 21.144531 C 19.179688 21.144531 18.84375 21.074219 18.523438 20.9375 C 18.203125 20.785156 17.960938 20.605469 17.796875 20.394531 C 17.640625 20.1875 17.535156 19.933594 17.484375 19.625 C 17.441406 19.417969 17.421875 19.082031 17.421875 18.625 L 17.421875 14.769531 L 18.460938 14.769531 L 18.460938 18.230469 C 18.460938 18.785156 18.488281 19.15625 18.546875 19.332031 C 18.597656 19.613281 18.734375 19.832031 18.941406 20 C 19.160156 20.15625 19.429688 20.230469 19.753906 20.230469 C 20.070312 20.230469 20.367188 20.15625 20.648438 20 C 20.925781 19.832031 21.117188 19.613281 21.234375 19.332031 C 21.34375 19.058594 21.398438 18.644531 21.398438 18.105469 L 21.398438 14.769531 L 22.460938 14.769531 L 22.460938 21 Z M 21.523438 21 "/>
<path style=" stroke:none;fill-rule:nonzero;fill:rgb(0%,0%,0%);fill-opacity:1;" d="M 26.429688 20.0625 L 26.574219 20.980469 C 26.265625 21.046875 26 21.082031 25.78125 21.082031 C 25.390625 21.082031 25.09375 21.019531 24.886719 20.894531 C 24.679688 20.769531 24.523438 20.613281 24.429688 20.417969 C 24.34375 20.222656 24.304688 19.8125 24.304688 19.1875 L 24.304688 15.605469 L 23.53125 15.605469 L 23.53125 14.769531 L 24.304688 14.769531 L 24.304688 13.230469 L 25.367188 12.605469 L 25.367188 14.769531 L 26.429688 14.769531 L 26.429688 15.605469 L 25.367188 15.605469 L 25.367188 19.230469 C 25.367188 19.535156 25.375 19.730469 25.40625 19.8125 C 25.449219 19.894531 25.511719 19.96875 25.59375 20.019531 C 25.679688 20.078125 25.792969 20.105469 25.949219 20.105469 C 26.074219 20.105469 26.230469 20.09375 26.429688 20.0625 Z M 26.429688 20.0625 "/>
<path style=" stroke:none;fill-rule:nonzero;fill:rgb(0%,0%,0%);fill-opacity:1;" d="M 27.449219 23.375 L 27.449219 14.769531 L 28.40625 14.769531 L 28.40625 15.582031 C 28.625 15.265625 28.875 15.03125 29.15625 14.875 C 29.449219 14.722656 29.804688 14.644531 30.21875 14.644531 C 30.746094 14.644531 31.210938 14.785156 31.617188 15.0625 C 32.015625 15.328125 32.324219 15.707031 32.53125 16.207031 C 32.742188 16.707031 32.84375 17.25 32.84375 17.832031 C 32.84375 18.472656 32.726562 19.050781 32.492188 19.5625 C 32.265625 20.078125 31.9375 20.472656 31.511719 20.75 C 31.078125 21.011719 30.621094 21.144531 30.136719 21.144531 C 29.789062 21.144531 29.476562 21.066406 29.199219 20.917969 C 28.917969 20.765625 28.6875 20.578125 28.511719 20.355469 L 28.511719 23.375 Z M 28.40625 17.917969 C 28.40625 18.722656 28.5625 19.324219 28.886719 19.707031 C 29.21875 20.082031 29.617188 20.269531 30.074219 20.269531 C 30.53125 20.269531 30.929688 20.078125 31.261719 19.6875 C 31.605469 19.285156 31.78125 18.667969 31.78125 17.832031 C 31.78125 17.042969 31.617188 16.453125 31.28125 16.0625 C 30.960938 15.660156 30.574219 15.457031 30.117188 15.457031 C 29.667969 15.457031 29.273438 15.675781 28.929688 16.105469 C 28.578125 16.519531 28.40625 17.125 28.40625 17.917969 Z M 28.40625 17.917969 "/>
<path style=" stroke:none;fill-rule:nonzero;fill:rgb(0%,0%,0%);fill-opacity:1;" d="M 38.207031 21 L 38.207031 20.082031 C 37.71875 20.792969 37.0625 21.144531 36.226562 21.144531 C 35.863281 21.144531 35.523438 21.074219 35.207031 20.9375 C 34.882812 20.785156 34.644531 20.605469 34.476562 20.394531 C 34.320312 20.1875 34.21875 19.933594 34.164062 19.625 C 34.125 19.417969 34.101562 19.082031 34.101562 18.625 L 34.101562 14.769531 L 35.144531 14.769531 L 35.144531 18.230469 C 35.144531 18.785156 35.171875 19.15625 35.226562 19.332031 C 35.28125 19.613281 35.414062 19.832031 35.625 20 C 35.84375 20.15625 36.113281 20.230469 36.4375 20.230469 C 36.753906 20.230469 37.050781 20.15625 37.332031 20 C 37.609375 19.832031 37.800781 19.613281 37.914062 19.332031 C 38.023438 19.058594 38.082031 18.644531 38.082031 18.105469 L 38.082031 14.769531 L 39.144531 14.769531 L 39.144531 21 Z M 38.207031 21 "/>
<path style=" stroke:none;fill-rule:nonzero;fill:rgb(0%,0%,0%);fill-opacity:1;" d="M 43.109375 20.0625 L 43.257812 20.980469 C 42.949219 21.046875 42.683594 21.082031 42.464844 21.082031 C 42.074219 21.082031 41.777344 21.019531 41.570312 20.894531 C 41.359375 20.769531 41.203125 20.613281 41.109375 20.417969 C 41.027344 20.222656 40.984375 19.8125 40.984375 19.1875 L 40.984375 15.605469 L 40.214844 15.605469 L 40.214844 14.769531 L 40.984375 14.769531 L 40.984375 13.230469 L 42.046875 12.605469 L 42.046875 14.769531 L 43.109375 14.769531 L 43.109375 15.605469 L 42.046875 15.605469 L 42.046875 19.230469 C 42.046875 19.535156 42.058594 19.730469 42.089844 19.8125 C 42.132812 19.894531 42.195312 19.96875 42.277344 20.019531 C 42.359375 20.078125 42.476562 20.105469 42.632812 20.105469 C 42.757812 20.105469 42.914062 20.09375 43.109375 20.0625 Z M 43.109375 20.0625 "/>
<path style=" stroke:none;fill-rule:nonzero;fill:rgb(0%,0%,0%);fill-opacity:1;" d="M 47.445312 21 L 47.445312 12.417969 L 48.488281 12.417969 L 48.488281 21 Z M 47.445312 21 "/>
<path style=" stroke:none;fill-rule:nonzero;fill:rgb(0%,0%,0%);fill-opacity:1;" d="M 54.195312 20.230469 C 53.804688 20.5625 53.429688 20.800781 53.070312 20.9375 C 52.703125 21.074219 52.320312 21.144531 51.902344 21.144531 C 51.21875 21.144531 50.695312 20.980469 50.320312 20.644531 C 49.953125 20.3125 49.777344 19.886719 49.777344 19.355469 C 49.777344 19.050781 49.84375 18.769531 49.984375 18.519531 C 50.121094 18.269531 50.304688 18.074219 50.527344 17.917969 C 50.746094 17.765625 50.996094 17.644531 51.277344 17.5625 C 51.484375 17.519531 51.796875 17.472656 52.214844 17.417969 C 53.074219 17.324219 53.703125 17.199219 54.109375 17.042969 C 54.109375 16.90625 54.109375 16.8125 54.109375 16.769531 C 54.109375 16.34375 54.011719 16.042969 53.820312 15.875 C 53.539062 15.625 53.136719 15.5 52.609375 15.5 C 52.109375 15.5 51.742188 15.59375 51.507812 15.769531 C 51.265625 15.9375 51.09375 16.246094 50.984375 16.6875 L 49.964844 16.5625 C 50.046875 16.121094 50.195312 15.765625 50.402344 15.5 C 50.621094 15.222656 50.933594 15.015625 51.339844 14.875 C 51.757812 14.722656 52.226562 14.644531 52.757812 14.644531 C 53.296875 14.644531 53.726562 14.707031 54.046875 14.832031 C 54.382812 14.957031 54.621094 15.121094 54.777344 15.3125 C 54.945312 15.496094 55.054688 15.730469 55.109375 16.019531 C 55.152344 16.203125 55.171875 16.519531 55.171875 16.980469 L 55.171875 18.394531 C 55.171875 19.371094 55.195312 19.988281 55.234375 20.25 C 55.277344 20.515625 55.367188 20.765625 55.507812 21 L 54.402344 21 C 54.289062 20.78125 54.21875 20.519531 54.195312 20.230469 Z M 54.109375 17.875 C 53.71875 18.03125 53.140625 18.160156 52.382812 18.269531 C 51.949219 18.34375 51.640625 18.417969 51.464844 18.5 C 51.28125 18.574219 51.140625 18.683594 51.046875 18.832031 C 50.949219 18.988281 50.902344 19.15625 50.902344 19.332031 C 50.902344 19.613281 51.007812 19.847656 51.214844 20.042969 C 51.421875 20.222656 51.734375 20.3125 52.152344 20.3125 C 52.554688 20.3125 52.914062 20.222656 53.234375 20.042969 C 53.554688 19.863281 53.789062 19.621094 53.945312 19.3125 C 54.054688 19.078125 54.109375 18.730469 54.109375 18.269531 Z M 54.109375 17.875 "/>
<path style=" stroke:none;fill-rule:nonzero;fill:rgb(0%,0%,0%);fill-opacity:1;" d="M 56.765625 23.394531 L 56.640625 22.417969 C 56.875 22.46875 57.078125 22.5 57.242188 22.5 C 57.476562 22.5 57.664062 22.457031 57.804688 22.375 C 57.941406 22.300781 58.0625 22.199219 58.160156 22.0625 C 58.210938 21.949219 58.316406 21.6875 58.472656 21.269531 C 58.5 21.214844 58.535156 21.128906 58.578125 21.019531 L 56.203125 14.769531 L 57.347656 14.769531 L 58.640625 18.375 C 58.804688 18.832031 58.957031 19.3125 59.097656 19.8125 C 59.207031 19.34375 59.347656 18.871094 59.515625 18.394531 L 60.847656 14.769531 L 61.910156 14.769531 L 59.535156 21.105469 C 59.285156 21.78125 59.085938 22.253906 58.953125 22.519531 C 58.753906 22.863281 58.539062 23.113281 58.304688 23.269531 C 58.066406 23.4375 57.773438 23.519531 57.429688 23.519531 C 57.234375 23.519531 57.015625 23.480469 56.765625 23.394531 Z M 56.765625 23.394531 "/>
<path style=" stroke:none;fill-rule:nonzero;fill:rgb(0%,0%,0%);fill-opacity:1;" d="M 67.054688 19 L 68.160156 19.125 C 67.976562 19.765625 67.648438 20.265625 67.179688 20.625 C 66.722656 20.972656 66.128906 21.144531 65.410156 21.144531 C 64.503906 21.144531 63.785156 20.871094 63.242188 20.3125 C 62.710938 19.746094 62.453125 18.953125 62.453125 17.9375 C 62.453125 16.894531 62.722656 16.09375 63.265625 15.519531 C 63.804688 14.9375 64.503906 14.644531 65.367188 14.644531 C 66.203125 14.644531 66.875 14.933594 67.390625 15.5 C 67.914062 16.058594 68.179688 16.847656 68.179688 17.875 C 68.179688 17.949219 68.179688 18.042969 68.179688 18.167969 L 63.535156 18.167969 C 63.578125 18.847656 63.769531 19.371094 64.117188 19.730469 C 64.460938 20.09375 64.898438 20.269531 65.429688 20.269531 C 65.816406 20.269531 66.144531 20.175781 66.410156 19.980469 C 66.6875 19.769531 66.898438 19.449219 67.054688 19 Z M 63.597656 17.292969 L 67.078125 17.292969 C 67.035156 16.765625 66.898438 16.371094 66.679688 16.105469 C 66.347656 15.703125 65.910156 15.5 65.367188 15.5 C 64.878906 15.5 64.472656 15.667969 64.140625 16 C 63.816406 16.324219 63.640625 16.75 63.597656 17.292969 Z M 63.597656 17.292969 "/>
<path style=" stroke:none;fill-rule:nonzero;fill:rgb(0%,0%,0%);fill-opacity:1;" d="M 69.460938 21 L 69.460938 14.769531 L 70.417969 14.769531 L 70.417969 15.730469 C 70.652344 15.285156 70.875 14.996094 71.085938 14.855469 C 71.292969 14.71875 71.523438 14.644531 71.773438 14.644531 C 72.117188 14.644531 72.480469 14.761719 72.855469 14.980469 L 72.480469 15.957031 C 72.230469 15.808594 71.96875 15.730469 71.710938 15.730469 C 71.484375 15.730469 71.277344 15.800781 71.085938 15.9375 C 70.902344 16.078125 70.773438 16.269531 70.6875 16.519531 C 70.574219 16.894531 70.523438 17.308594 70.523438 17.75 L 70.523438 21 Z M 69.460938 21 "/>
<path style="fill-rule:nonzero;fill:rgb(69.803923%,85.09804%,100%);fill-opacity:1;stroke-width:1;stroke-linecap:round;stroke-linejoin:round;stroke:rgb(0%,0%,0%);stroke-opacity:1;stroke-miterlimit:10;" d="M 282.641602 138.485352 C 287.62207 143.46582 287.62207 151.53418 282.641602 156.514648 C 277.661133 161.495117 269.589844 161.495117 264.609375 156.514648 C 259.628906 151.53418 259.628906 143.46582 264.609375 138.485352 C 269.589844 133.504883 277.661133 133.504883 282.641602 138.485352 " transform="matrix(1.333333,0,0,1.333333,-32,-98.666667)"/>
<path style=" stroke:none;fill-rule:nonzero;fill:rgb(0%,0%,0%);fill-opacity:1;" d="M 331.085938 95.75 C 330.917969 94.917969 330.773438 94.707031 330.480469 94.707031 C 330.191406 94.707031 329.792969 94.792969 329.066406 95.0625 L 328.941406 95.105469 L 328.980469 95.292969 L 329.191406 95.230469 C 329.417969 95.167969 329.566406 95.144531 329.648438 95.144531 C 329.960938 95.144531 330.042969 95.25 330.210938 95.957031 L 330.542969 97.457031 L 329.566406 98.855469 C 329.316406 99.207031 329.085938 99.4375 328.941406 99.4375 C 328.878906 99.4375 328.753906 99.394531 328.628906 99.332031 C 328.480469 99.25 328.355469 99.1875 328.253906 99.1875 C 328.023438 99.1875 327.835938 99.394531 327.835938 99.625 C 327.835938 99.9375 328.066406 100.125 328.441406 100.125 C 328.816406 100.125 329.066406 100.019531 329.585938 99.3125 L 330.648438 97.894531 L 330.980469 99.3125 C 331.128906 99.917969 331.316406 100.125 331.691406 100.125 C 332.148438 100.125 332.460938 99.855469 333.167969 98.769531 L 332.980469 98.644531 C 332.878906 98.769531 332.835938 98.855469 332.730469 99 C 332.460938 99.355469 332.316406 99.480469 332.167969 99.480469 C 332.003906 99.480469 331.898438 99.3125 331.816406 98.980469 L 331.417969 97.375 C 331.355469 97.082031 331.316406 96.917969 331.316406 96.832031 C 331.855469 95.917969 332.292969 95.375 332.503906 95.375 C 332.792969 95.375 332.898438 95.582031 333.128906 95.582031 C 333.355469 95.582031 333.523438 95.394531 333.523438 95.144531 C 333.523438 94.894531 333.335938 94.707031 333.042969 94.707031 C 332.523438 94.707031 332.066406 95.144531 331.230469 96.417969 Z M 331.085938 95.75 "/>
<path style=" stroke:none;fill-rule:nonzero;fill:rgb(0%,0%,0%);fill-opacity:1;" d="M 337.664062 98.542969 C 337.246094 98.625 336.957031 98.667969 336.433594 98.730469 L 336.433594 98.855469 C 336.871094 98.875 336.957031 98.894531 336.957031 99.0625 C 336.957031 99.167969 336.957031 99.207031 336.851562 99.625 L 336.476562 100.9375 C 336.433594 100.625 336.289062 100.480469 335.957031 100.480469 C 334.914062 100.480469 333.621094 101.855469 333.621094 103.144531 C 333.621094 103.75 333.957031 104.082031 334.476562 104.082031 C 335.019531 104.082031 335.433594 103.832031 335.894531 103.042969 C 335.808594 103.4375 335.789062 103.5625 335.789062 103.75 C 335.789062 103.957031 335.914062 104.105469 336.121094 104.105469 C 336.519531 104.105469 336.914062 103.769531 337.289062 103.1875 L 337.207031 103.105469 C 336.769531 103.605469 336.683594 103.6875 336.539062 103.6875 C 336.433594 103.6875 336.394531 103.625 336.394531 103.519531 C 336.394531 103.394531 336.664062 102.457031 336.914062 101.542969 L 337.394531 99.792969 L 337.707031 98.582031 Z M 336.351562 101.105469 C 336.351562 102.332031 335.519531 103.707031 334.769531 103.707031 C 334.496094 103.707031 334.308594 103.480469 334.308594 103.125 C 334.308594 102.457031 334.707031 101.582031 335.246094 101.019531 C 335.457031 100.792969 335.746094 100.644531 335.976562 100.644531 C 336.144531 100.644531 336.351562 100.832031 336.351562 101.105469 Z M 336.351562 101.105469 "/>
<path style="fill-rule:nonzero;fill:rgb(40.000001%,74.901962%,100%);fill-opacity:1;stroke-width:1;stroke-linecap:round;stroke-linejoin:round;stroke:rgb(0%,0%,0%);stroke-opacity:1;stroke-miterlimit:10;" d="M 202.640625 78.233398 C 207.621094 83.213867 207.621094 91.285156 202.640625 96.265625 C 197.660156 101.246094 189.588867 101.246094 184.608398 96.265625 C 179.62793 91.285156 179.62793 83.213867 184.608398 78.233398 C 189.588867 73.25293 197.660156 73.25293 202.640625 78.233398 " transform="matrix(1.333333,0,0,1.333333,-32,-98.666667)"/>
<path style=" stroke:none;fill-rule:nonzero;fill:rgb(0%,0%,0%);fill-opacity:1;" d="M 226.792969 16.0625 C 226.792969 15 226.0625 14.375 225.082031 14.375 C 224.605469 14.375 224.125 14.480469 223.644531 14.730469 C 222.394531 15.417969 221.5 16.792969 221.5 18.125 C 221.5 19.167969 222.125 19.792969 223.25 19.792969 C 224.042969 19.792969 224.8125 19.5 225.519531 18.8125 C 226.3125 18.019531 226.792969 16.957031 226.792969 16.0625 Z M 225.769531 15.75 C 225.769531 16.667969 225.4375 17.792969 224.894531 18.542969 C 224.417969 19.207031 223.957031 19.542969 223.4375 19.542969 C 222.875 19.542969 222.5 19.167969 222.5 18.457031 C 222.5 17.5 222.832031 16.5625 223.394531 15.707031 C 223.875 15 224.394531 14.625 224.917969 14.625 C 225.4375 14.625 225.769531 15.019531 225.769531 15.75 Z M 225.769531 15.75 "/>
<path style=" stroke:none;fill-rule:nonzero;fill:rgb(0%,0%,0%);fill-opacity:1;" d="M 230.3125 23.667969 L 230.3125 23.542969 C 229.707031 23.542969 229.5625 23.394531 229.5625 23.0625 L 229.5625 18.292969 L 229.480469 18.25 L 228.0625 18.980469 L 228.0625 19.105469 L 228.269531 19.019531 C 228.417969 18.957031 228.542969 18.917969 228.625 18.917969 C 228.792969 18.917969 228.875 19.042969 228.875 19.3125 L 228.875 22.917969 C 228.875 23.355469 228.707031 23.519531 228.105469 23.542969 L 228.105469 23.667969 Z M 230.3125 23.667969 "/>
<path style="fill:none;stroke-width:1;stroke-linecap:round;stroke-linejoin:round;stroke:rgb(0%,0%,0%);stroke-opacity:1;stroke-miterlimit:10;" d="M 125.074219 140.433594 L 178.889648 98.682617 " transform="matrix(1.333333,0,0,1.333333,-32,-98.666667)"/>
<path style="fill:none;stroke-width:1;stroke-linecap:butt;stroke-linejoin:miter;stroke:rgb(0%,0%,0%);stroke-opacity:1;stroke-miterlimit:10;" d="M 182.050781 96.230469 L 178.889648 98.682617 M 177.969727 97.496094 L 182.050781 96.230469 L 179.80957 99.866211 " transform="matrix(1.333333,0,0,1.333333,-32,-98.666667)"/>
<path style="fill:none;stroke-width:1;stroke-linecap:round;stroke-linejoin:round;stroke:rgb(0%,0%,0%);stroke-opacity:1;stroke-miterlimit:10;" d="M 172.836914 136.499023 L 186.37207 104.433594 " transform="matrix(1.333333,0,0,1.333333,-32,-98.666667)"/>
<path style="fill:none;stroke-width:1;stroke-linecap:butt;stroke-linejoin:miter;stroke:rgb(0%,0%,0%);stroke-opacity:1;stroke-miterlimit:10;" d="M 187.924805 100.750977 L 186.37207 104.433594 M 184.989258 103.850586 L 187.924805 100.750977 L 187.754883 105.019531 " transform="matrix(1.333333,0,0,1.333333,-32,-98.666667)"/>
<path style="fill:none;stroke-width:1;stroke-linecap:round;stroke-linejoin:round;stroke:rgb(0%,0%,0%);stroke-opacity:1;stroke-miterlimit:10;" d="M 263.4375 139.827148 L 208.523437 98.47168 " transform="matrix(1.333333,0,0,1.333333,-32,-98.666667)"/>
<path style="fill:none;stroke-width:1;stroke-linecap:butt;stroke-linejoin:miter;stroke:rgb(0%,0%,0%);stroke-opacity:1;stroke-miterlimit:10;" d="M 205.327148 96.063477 L 208.523437 98.47168 M 207.621094 99.666992 L 205.327148 96.063477 L 209.425781 97.273438 " transform="matrix(1.333333,0,0,1.333333,-32,-98.666667)"/>
<path style=" stroke:none;fill-rule:nonzero;fill:rgb(0%,0%,0%);fill-opacity:1;" d="M 270.605469 100.417969 C 270.605469 99.769531 270.0625 99.207031 269.4375 99.207031 C 268.769531 99.207031 268.25 99.730469 268.25 100.394531 C 268.25 101.0625 268.75 101.5625 269.417969 101.5625 C 270.0625 101.5625 270.605469 101.042969 270.605469 100.417969 Z M 263.5 100.417969 C 263.5 99.769531 262.957031 99.207031 262.332031 99.207031 C 261.667969 99.207031 261.144531 99.730469 261.144531 100.394531 C 261.144531 101.0625 261.644531 101.5625 262.3125 101.5625 C 262.957031 101.5625 263.5 101.042969 263.5 100.417969 Z M 256.394531 100.417969 C 256.394531 99.769531 255.855469 99.207031 255.230469 99.207031 C 254.5625 99.207031 254.042969 99.730469 254.042969 100.394531 C 254.042969 101.0625 254.542969 101.5625 255.207031 101.5625 C 255.855469 101.5625 256.394531 101.042969 256.394531 100.417969 Z M 256.394531 100.417969 "/>
</g>
</svg>
